# xmcd
#
# Track frame offsets: 
#        150
#        43395
#        80617
#        109077
#        148865
#
# Disc length: 2659 seconds
#
# Revision: 2
# Processed by: cddbd v1.5.2PL0 Copyright (c) Steve Scherf et al.
# Submitted via: ExactAudioCopy v1.3
#
DISCID=460a6105
DTITLE=Art Blakey and Jazz Messengers - Art Blakey Memorial
DYEAR=1990
DGENRE=Jazz
TTITLE0=MOANIN'
TTITLE1=MOSAIC
TTITLE2=BLUES MARCH
TTITLE3=DAT DERE
TTITLE4=A NIGHT IN TUNISIA
EXTD=YEAR: 1990
EXTT0=
EXTT1=
EXTT2=
EXTT3=
EXTT4=
PLAYORDER=
